<svg version="1.2" xmlns="http://www.w3.org/2000/svg" viewBox="0 0 430 381" width="430" height="381">
	<title>2241614-ai</title>
	<defs>
		<linearGradient id="g1" x2="1" gradientUnits="userSpaceOnUse" gradientTransform="matrix(-185.802,161.421,-159.867,-184.014,391.411,232.257)">
			<stop offset="0" stop-color="#00d7ff"/>
			<stop offset=".592" stop-color="#5a2ae0"/>
		</linearGradient>
		<radialGradient id="g2" cx="0" cy="0" r="1" gradientUnits="userSpaceOnUse" gradientTransform="matrix(49.847,0,0,49.847,225.807,231.624)">
			<stop offset="0" stop-color="#202368"/>
			<stop offset=".984" stop-color="#4d00ad"/>
		</radialGradient>
		<linearGradient id="g3" x2="1" gradientUnits="userSpaceOnUse" gradientTransform="matrix(-51.488,60.166,-60.166,-51.488,277.301,224.309)">
			<stop offset="0" stop-color="#00d7ff"/>
			<stop offset=".516" stop-color="#712ad0"/>
			<stop offset="1" stop-color="#2e3191"/>
		</linearGradient>
	</defs>
	<style>
		tspan { white-space:pre } 
		.s0 { opacity: .1;mix-blend-mode: screen;fill: #8627f4 } 
		.s1 { opacity: .1;mix-blend-mode: screen;fill: none;stroke: #45a5f4;stroke-miterlimit:10;stroke-width: 8 } 
		.s2 { opacity: .2;mix-blend-mode: screen;fill: none;stroke: #45a5f4;stroke-miterlimit:10;stroke-width: 7.7 } 
		.s3 { opacity: .2;mix-blend-mode: screen;fill: none;stroke: #45a5f4;stroke-miterlimit:10;stroke-width: 12 } 
		.s4 { opacity: .3;fill: none;stroke: #3b6be2;stroke-linecap: round;stroke-linejoin: round;stroke-width: 2.9 } 
		.s5 { opacity: .3;fill: none;stroke: #9f39f7;stroke-linecap: round;stroke-linejoin: round;stroke-width: 2.9 } 
		.s6 { opacity: .6;mix-blend-mode: multiply;fill: #782eed } 
		.s7 { fill: #4410c4 } 
		.s8 { fill: url(#g1) } 
		.s9 { opacity: .4;mix-blend-mode: screen;fill: none;stroke: #428a9b;stroke-miterlimit:10;stroke-width: 2.1 } 
		.s10 { opacity: .7;fill: url(#g2) } 
		.s11 { fill: #ffffff } 
		.s12 { fill: url(#g3) } 
		.s13 { fill: none;stroke: #ffffff;stroke-linecap: round;stroke-miterlimit:10;stroke-width: 2.1 } 
		.s14 { mix-blend-mode: multiply;fill: #cac6fc } 
		.s15 { fill: none;stroke: #00d7ff;stroke-miterlimit:10 } 
		.s16 { fill: #00d7ff } 
		.s17 { fill: #532498 } 
		.s18 { fill: #33318d } 
		.s19 { opacity: .1;fill: none;stroke: #9f39f7;stroke-linecap: round;stroke-linejoin: round;stroke-width: 2.9 } 
	</style>
	<g id="OBJECTS">
		<g id="&lt;Group&gt;">
			<path id="&lt;Path&gt;" class="s0" d="m349.4 192c0 63.1-51.1 114.3-114.2 114.3-63.2 0-114.3-51.2-114.3-114.3 0-63.1 51.1-114.3 114.3-114.3 63.1 0 114.2 51.2 114.2 114.3z"/>
			<path id="&lt;Path&gt;" class="s1" d="m260.8 103.9c38.2 11.1 66.1 46.3 66.1 88.1"/>
			<path id="&lt;Path&gt;" class="s2" d="m194.9 128.2c11.7-7.4 25.5-11.6 40.3-11.6 41.6 0 75.4 33.7 75.4 75.4"/>
			<path id="&lt;Path&gt;" class="s3" d="m143.4 192c0-50.7 41.1-91.8 91.8-91.8"/>
			<path id="&lt;Path&gt;" class="s1" d="m260.8 103.9c38.2 11.1 66.1 46.3 66.1 88.1"/>
			<path id="&lt;Path&gt;" class="s2" d="m194.9 128.2c11.7-7.4 25.5-11.6 40.3-11.6 41.6 0 75.4 33.7 75.4 75.4"/>
			<path id="&lt;Path&gt;" class="s3" d="m143.4 192c0-50.7 41.1-91.8 91.8-91.8"/>
			<path id="&lt;Path&gt;" class="s4" d="m151.3 101.8c22-20.5 51.5-33 83.9-33 68 0 123.1 55.2 123.1 123.2"/>
			<path id="&lt;Path&gt;" class="s5" d="m349.5 238c-18.3 45.2-62.6 77.2-114.3 77.2-68.1 0-123.2-55.2-123.2-123.2 0-17.4 3.6-33.9 10-48.8"/>
			<path id="&lt;Path&gt;" class="s5" d="m97.6 107c12.1-19.5 28.2-36.2 47.2-49 25.8-17.5 56.9-27.6 90.4-27.6 89.2 0 161.6 72.3 161.6 161.6"/>
			<path id="&lt;Path&gt;" class="s4" d="m375.1 273c-28 48.2-80.2 80.6-139.9 80.6-89.3 0-161.7-72.4-161.7-161.6"/>
			<g id="&lt;Group&gt;" style="opacity: .8">
				<path id="&lt;Path&gt;" class="s5" d="m240.8 56.4l-8.1-8.1 8.1-8.2"/>
				<path id="&lt;Path&gt;" class="s5" d="m205.5 59.5l-9.9-5.8 5.7-9.9"/>
				<path id="&lt;Path&gt;" class="s5" d="m172.2 71.6l-11.1-2.9 3-11.1"/>
				<path id="&lt;Path&gt;" class="s5" d="m143.2 92h-11.5v-11.5"/>
				<path id="&lt;Path&gt;" class="s5" d="m120.4 119.2l-11 2.9-3-11.1"/>
				<path id="&lt;Path&gt;" class="s5" d="m105.5 151.3l-10 5.7-5.7-9.9"/>
				<path id="&lt;Path&gt;" class="s5" d="m99.4 186.2l-8.2 8.1-8.1-8.1"/>
				<path id="&lt;Path&gt;" class="s5" d="m102.5 221.5l-5.8 9.9-9.9-5.7"/>
				<path id="&lt;Path&gt;" class="s5" d="m114.6 254.8l-2.9 11.1-11.1-3"/>
				<path id="&lt;Path&gt;" class="s5" d="m135 283.8v11.5h-11.5"/>
				<path id="&lt;Path&gt;" class="s5" d="m162.2 306.6l2.9 11-11.1 3"/>
				<path id="&lt;Path&gt;" class="s5" d="m194.3 321.5l5.7 10-9.9 5.7"/>
				<path id="&lt;Path&gt;" class="s5" d="m229.2 327.6l8.1 8.1-8.1 8.2"/>
				<path id="&lt;Path&gt;" class="s5" d="m264.5 324.5l9.9 5.8-5.7 9.9"/>
				<path id="&lt;Path&gt;" class="s5" d="m297.8 312.4l11.1 2.9-3 11.1"/>
				<path id="&lt;Path&gt;" class="s5" d="m326.8 292h11.5v11.5"/>
				<path id="&lt;Path&gt;" class="s5" d="m349.6 264.8l11-2.9 3 11.1"/>
				<path id="&lt;Path&gt;" class="s5" d="m364.5 232.7l10-5.7 5.7 9.9"/>
				<path id="&lt;Path&gt;" class="s5" d="m370.6 197.8l8.1-8.1 8.2 8.1"/>
				<path id="&lt;Path&gt;" class="s5" d="m367.5 162.5l5.8-9.9 9.9 5.7"/>
				<path id="&lt;Path&gt;" class="s5" d="m355.4 129.2l2.9-11.1 11.1 3"/>
				<path id="&lt;Path&gt;" class="s5" d="m335 100.2v-11.5h11.5"/>
				<path id="&lt;Path&gt;" class="s5" d="m307.8 77.4l-2.9-11 11.1-3"/>
				<path id="&lt;Path&gt;" class="s5" d="m275.7 62.5l-5.7-10 9.9-5.7"/>
			</g>
			<path id="&lt;Path&gt;" class="s6" d="m247 373.5h-200.2c-3.5 0-5.1-4.5-2.3-6.7l96.7-75.6h211z"/>
			<g id="&lt;Group&gt;">
				<path id="&lt;Path&gt;" class="s7" d="m315.5 135.9h-149.8c-5.2 0-10 2.2-13.3 5.7l-13.5 12.4h8.4q0 0.2 0 0.3v127.1c0 10.2 8.2 18.5 18.4 18.5h145.8l2.6 7.9 13.8-12.8c3.7-3.3 6-8.2 6-13.6v-127.1c0-10.1-8.2-18.4-18.4-18.4z"/>
				<path id="&lt;Path&gt;" class="s8" d="m301.4 313.6h-151.2c-9.8 0-17.7-8-17.7-17.8v-128.4c0-9.8 7.9-17.7 17.7-17.7h151.2c9.8 0 17.7 7.9 17.7 17.7v128.4c0 9.8-7.9 17.8-17.7 17.8z"/>
				<path id="&lt;Path&gt;" class="s9" d="m142.9 295.5v-127.7c0-4.3 3.4-7.8 7.7-7.8h150.4c4.3 0 7.8 3.5 7.8 7.8v127.7c0 4.2-3.5 7.7-7.8 7.7h-150.4c-4.3 0-7.7-3.5-7.7-7.7z"/>
				<g id="&lt;Group&gt;">
					<path id="&lt;Path&gt;" class="s10" d="m256 188.8c-10.8 0-20.8-3.5-29-9.3-0.7-0.4-1.6-0.4-2.3 0-8.3 5.8-18.3 9.3-29.1 9.3-5 0-9.8-0.8-14.4-2.1-1.2-0.4-2.5 0.6-2.5 1.9v40q0 1.3 0.1 2.4c1.2 24.8 21 44.9 46.4 53 0.4 0.1 0.8 0.1 1.2 0 25.5-8.1 45.2-28.2 46.4-53q0.1-1.1 0.1-2.4v-40c0-1.3-1.3-2.3-2.5-1.9-4.6 1.3-9.4 2.1-14.4 2.1z"/>
					<path id="&lt;Path&gt;" class="s11" d="m225.8 272.2c-20.6-7.4-34.9-23.9-35.7-41.7-0.1-0.7-0.1-1.3-0.1-1.9v-28.8q2.8 0.3 5.6 0.3c10.7 0 21-2.7 30.2-7.9 9.2 5.2 19.6 7.9 30.2 7.9q2.8 0 5.6-0.3v28.8q0 0.9-0.1 1.8c-0.8 17.9-15.1 34.3-35.7 41.8z"/>
					<path id="&lt;Path&gt;" class="s12" d="m249.9 232.2c0 13.3-10.8 24.1-24.1 24.1-13.3 0-24.1-10.8-24.1-24.1 0-13.3 10.8-24.1 24.1-24.1 13.3 0 24.1 10.8 24.1 24.1z"/>
					<g id="&lt;Group&gt;">
						<path id="&lt;Path&gt;" class="s11" d="m224.6 244.3c-0.7 0-1.3-0.3-1.8-0.7l-10.9-10c-1.1-1-1.1-2.7-0.2-3.7 1-1.1 2.7-1.2 3.8-0.2l9.1 8.4 14.7-13.3c1-1 2.7-0.9 3.7 0.2 0.9 1.1 0.9 2.7-0.2 3.7l-16.5 14.9c-0.5 0.5-1.1 0.7-1.7 0.7z"/>
					</g>
				</g>
				<path id="&lt;Path&gt;" class="s11" d="m287 116.7v24.5c0 1.3-2.3 2.3-5.2 2.3-1 0-1.9-0.1-2.6-0.3-1.5-0.4-2.6-1.2-2.6-2v-24.5c0-25.5-20.8-46.3-46.3-46.3-25.6 0-46.4 20.8-46.4 46.3v24.5c0 0.8-1 1.6-2.5 2-0.8 0.2-1.7 0.3-2.7 0.3-2.9 0-5.2-1-5.2-2.3v-24.5c0-31.2 25.5-56.7 56.8-56.7 31.2 0 56.7 25.5 56.7 56.7z"/>
				<path id="&lt;Path&gt;" class="s13" d="m230.9 63.3c28.6 0 51.9 23.3 51.9 51.9"/>
				<path id="&lt;Path&gt;" class="s14" d="m279.2 116.2v27c-1.5-0.4-2.6-1.2-2.6-2v-24.5c0-25.5-20.8-46.3-46.3-46.3-25.6 0-46.4 20.8-46.4 46.3v24.5c0 0.8-1 1.6-2.5 2v-27c0-27 21.9-48.9 48.9-48.9 26.9 0 48.9 21.9 48.9 48.9z"/>
			</g>
			<g id="&lt;Group&gt;">
				<path id="&lt;Path&gt;" class="s15" d="m355.4 174c0 2.2-1.8 4-4.1 4-2.2 0-4-1.8-4-4 0-2.2 1.8-4 4-4 2.3 0 4.1 1.8 4.1 4z"/>
				<path id="&lt;Path&gt;" class="s16" d="m164 80.5c0 1.6-1.3 2.8-2.9 2.8-1.6 0-2.8-1.2-2.8-2.8 0-1.6 1.2-2.8 2.8-2.8 1.6 0 2.9 1.2 2.9 2.8z"/>
				<path id="&lt;Path&gt;" class="s16" d="m100.5 48.3c0 1.5-1.3 2.8-2.9 2.8-1.5 0-2.8-1.3-2.8-2.8 0-1.6 1.3-2.9 2.8-2.9 1.6 0 2.9 1.3 2.9 2.9z"/>
				<path id="&lt;Path&gt;" class="s15" d="m302.3 46.8c0 2.2-1.8 4-4 4-2.2 0-4-1.8-4-4 0-2.2 1.8-4 4-4 2.2 0 4 1.8 4 4z"/>
				<path id="&lt;Path&gt;" class="s15" d="m77.5 133.8c0 2.2-1.8 4-4 4-2.2 0-4-1.8-4-4 0-2.3 1.8-4.1 4-4.1 2.2 0 4 1.8 4 4.1z"/>
				<path id="&lt;Path&gt;" class="s16" d="m366.5 143.5c0 1.6-1.3 2.9-2.9 2.9-1.5 0-2.8-1.3-2.8-2.9 0-1.6 1.3-2.8 2.8-2.8 1.6 0 2.9 1.2 2.9 2.8z"/>
				<path id="&lt;Path&gt;" class="s16" d="m122.9 186.9c0 1.1-0.9 2-2 2-1.1 0-2-0.9-2-2 0-1.1 0.9-2 2-2 1.1 0 2 0.9 2 2z"/>
				<path id="&lt;Path&gt;" class="s16" d="m95.2 176.6c0 1.1-0.9 2-2 2-1.1 0-2-0.9-2-2 0-1.1 0.9-2 2-2 1.1 0 2 0.9 2 2z"/>
				<path id="&lt;Path&gt;" class="s16" d="m308 86.2c0 1.1-0.9 2-2 2-1.1 0-2-0.9-2-2 0-1 0.9-1.9 2-1.9 1.1 0 2 0.9 2 1.9z"/>
				<path id="&lt;Path&gt;" class="s16" d="m398.8 221.8c0 1.1-0.9 2-2 2-1.1 0-2-0.9-2-2 0-1.1 0.9-1.9 2-1.9 1.1 0 2 0.8 2 1.9z"/>
				<path id="&lt;Path&gt;" class="s16" d="m85.1 265c0 1.1-0.9 2-2 2-1.1 0-2-0.9-2-2 0-1.1 0.9-2 2-2 1.1 0 2 0.9 2 2z"/>
			</g>
			<path id="&lt;Path&gt;" class="s17" d="m420.6 23.6c0-2.5-2.1-4.6-4.6-4.6-2.5 0-4.6 2.1-4.6 4.6 0 2.1 1.3 3.7 3.1 4.4l0.1 18.4h-48.6c-0.6 0-1.1 0.3-1.4 0.9l-14 32.2c-0.4 0.8 0 1.6 0.7 1.9q0.3 0.1 0.6 0.1c0.5 0 1.1-0.3 1.3-0.8l13.7-31.4h49.1c0.4 0 0.7-0.2 1-0.4 0.3-0.3 0.4-0.7 0.4-1.1v-19.8c1.8-0.6 3.2-2.3 3.2-4.4z"/>
			<path id="&lt;Path&gt;" class="s18" d="m81.1 239.7h-44.9l-10.6-55.1c-0.1-0.6-0.7-1.1-1.4-1.1h-10c-0.6-1.9-2.3-3.2-4.4-3.2-2.5 0-4.6 2.1-4.6 4.6 0 2.5 2.1 4.6 4.6 4.6 2.1 0 3.8-1.3 4.4-3.2h8.8l10.6 55.1c0.1 0.7 0.7 1.1 1.4 1.1h46.1c0.8 0 1.5-0.6 1.5-1.4 0-0.8-0.7-1.4-1.5-1.4z"/>
			<path id="&lt;Path&gt;" class="s17" d="m404.8 103.9c-2.1 0-3.9 1.5-4.4 3.5h-26.7c-0.6 0-1.1 0.5-1.1 1.1 0 0.6 0.5 1.1 1.1 1.1h26.7c0.5 2 2.3 3.5 4.4 3.5 2.6 0 4.6-2.1 4.6-4.6 0-2.5-2-4.6-4.6-4.6z"/>
			<path id="&lt;Path&gt;" class="s18" d="m404.8 339.3q-0.4 0-0.8 0.1l-13.5-24.9c-0.2-0.5-0.7-0.8-1.2-0.8h-48.5c-0.8 0-1.5 0.7-1.5 1.5 0 0.8 0.7 1.4 1.5 1.4h47.6l13.1 24.1c-0.8 0.9-1.3 2-1.3 3.2 0 2.5 2.1 4.6 4.6 4.6 2.6 0 4.6-2.1 4.6-4.6 0-2.6-2-4.6-4.6-4.6z"/>
			<path id="&lt;Path&gt;" class="s19" d="m421.1 190.3c0 101.9-82.7 184.6-184.7 184.6-102 0-184.7-82.7-184.7-184.6 0-102 82.7-184.7 184.7-184.7 102 0 184.7 82.7 184.7 184.7z"/>
		</g>
	</g>
</svg>